<svg width="73" height="150" viewBox="0 0 73 150" fill="none" xmlns="http://www.w3.org/2000/svg" class="noodle-header__desktop-dots-svg" data-v-3166daae=""><path fill-rule="evenodd" clip-rule="evenodd" d="M70.5492 7.8819C72.2714 13.7078 68.9446 19.8267 63.1186 21.5489L63.1146 21.5501C57.2887 23.2724 51.1697 19.9459 49.4473 14.1201C47.7249 8.2942 51.0514 2.17514 56.8773 0.452755L56.8823 0.451278C62.7082 -1.27084 68.8271 2.05596 70.5492 7.8819ZM37.4434 20.1525C41.556 24.624 41.265 31.5827 36.7936 35.6953L36.788 35.7004C32.3171 39.8137 25.3583 39.5237 21.2451 35.0529C17.1319 30.582 17.4218 23.6232 21.8927 19.51L21.9007 19.5027C26.3721 15.3901 33.3309 15.681 37.4434 20.1525ZM14.3978 46.7747C20.3145 48.153 23.9935 54.0669 22.6151 59.9836L22.6134 59.9909C21.2359 65.9078 15.3226 69.5877 9.40573 68.2102C3.48883 66.8326 -0.191083 60.9194 1.18642 55.0025L1.18886 54.992C2.56725 49.0753 8.48108 45.3963 14.3978 46.7747ZM10.0928 81.6701C15.9264 79.9744 22.0302 83.3289 23.7259 89.1626L23.7281 89.1701C25.4245 95.0036 22.0707 101.108 16.2372 102.804C10.4038 104.501 4.29959 101.147 2.60319 95.3133L2.60026 95.3032C0.904574 89.4695 4.25908 83.3658 10.0928 81.6701ZM22.8013 114.546C27.1559 110.31 34.1201 110.406 38.3562 114.76L38.3614 114.766C42.5982 119.12 42.5031 126.084 38.1491 130.321C33.7951 134.557 26.8309 134.462 22.5942 130.108L22.5868 130.101C18.3506 125.746 18.4467 118.782 22.8013 114.546ZM50.0917 137.058C50.8878 131.035 56.4155 126.798 62.4382 127.594L62.4417 127.595C68.4645 128.39 72.7022 133.918 71.9067 139.94C71.1113 145.963 65.584 150.201 59.5611 149.405L59.5555 149.405C53.5327 148.609 49.2957 143.081 50.0917 137.058Z" fill="#FF5533"></path></svg>