<svg width="51" height="51" viewBox="0 0 51 51" fill="none" xmlns="http://www.w3.org/2000/svg">
<g clip-path="url(#clip0_10_82)">
<path d="M14.7082 30.8027L13.3855 35.7407L8.55096 35.8429C7.10614 33.1631 6.28662 30.0971 6.28662 26.8389C6.28662 23.6882 7.05286 20.7171 8.41106 18.101H8.4121L12.7162 18.89L14.6016 23.1683C14.207 24.3188 13.9919 25.5538 13.9919 26.8389C13.9921 28.2336 14.2447 29.5699 14.7082 30.8027Z" fill="#FBBB00"/>
<path d="M43.9547 23.2894C44.1729 24.4388 44.2867 25.6258 44.2867 26.8389C44.2867 28.1991 44.1436 29.526 43.8712 30.8059C42.9463 35.1613 40.5295 38.9644 37.1815 41.6558L37.1805 41.6547L31.7593 41.3781L30.992 36.5884C33.2135 35.2856 34.9496 33.2467 35.8642 30.8059H25.7043V23.2894H36.0124H43.9547Z" fill="#518EF8"/>
<path d="M37.1805 41.6547L37.1815 41.6558C33.9255 44.273 29.7892 45.8389 25.2867 45.8389C18.051 45.8389 11.7602 41.7947 8.55103 35.8431L14.7083 30.8029C16.3128 35.0851 20.4438 38.1335 25.2867 38.1335C27.3683 38.1335 29.3185 37.5708 30.9919 36.5884L37.1805 41.6547Z" fill="#28B446"/>
<path d="M37.4143 12.213L31.2591 17.2522C29.5273 16.1696 27.48 15.5443 25.2867 15.5443C20.3342 15.5443 16.1259 18.7325 14.6018 23.1683L8.41217 18.1009H8.41113C11.5733 12.0042 17.9435 7.83887 25.2867 7.83887C29.8968 7.83887 34.1238 9.48103 37.4143 12.213Z" fill="#F14336"/>
</g>
<defs>
<clipPath id="clip0_10_82">
<rect width="38" height="38" fill="white" transform="translate(6.28662 7.83887)"/>
</clipPath>
</defs>
</svg>
